<?xml version="1.0" encoding="utf-8"?>
<!-- Generator: Adobe Illustrator 16.0.0, SVG Export Plug-In . SVG Version: 6.00 Build 0)  -->
<!DOCTYPE svg PUBLIC "-//W3C//DTD SVG 1.1//EN" "http://www.w3.org/Graphics/SVG/1.1/DTD/svg11.dtd">
<svg version="1.1" xmlns="http://www.w3.org/2000/svg" xmlns:xlink="http://www.w3.org/1999/xlink" x="0px" y="0px" width="24px"
	 height="24px" viewBox="0 0 24 24" enable-background="new 0 0 24 24" xml:space="preserve">
<g id="Modular_Grid" display="none">
</g>
<g id="_x34_px_Baseline_Grid">
</g>
<g id="Shape_overlay" display="none">
</g>
<g id="Mobile_Grid">
</g>
<g id="_x31_104px_12col_24px_gutter">
</g>
<g id="Design">
	<g id="Your_Icon_2_">
		<path fill="#FFFFFF" d="M5.905,23.945C2.648,23.945,0,21.297,0,18.041V8.133c0-0.947,0.767-1.715,1.714-1.715
			s1.715,0.768,1.715,1.715v9.908c0,1.366,1.11,2.477,2.476,2.477s2.476-1.111,2.476-2.477c0-0.935-0.517-1.779-1.352-2.208
			c-0.842-0.433-1.174-1.465-0.743-2.308c0.433-0.843,1.466-1.176,2.308-0.744c1.982,1.017,3.215,3.032,3.215,5.259
			C11.81,21.297,9.161,23.945,5.905,23.945z"/>
		<path fill="#FFFFFF" d="M16.191,19.755c-0.947,0-1.715-0.768-1.715-1.715c0-4.123-2.936-7.668-6.981-8.425
			c-0.931-0.174-1.544-1.07-1.371-2C6.3,6.685,7.197,6.071,8.126,6.246c5.666,1.062,9.779,6.022,9.779,11.795
			C17.906,18.987,17.138,19.755,16.191,19.755z"/>
		<path fill="#FFFFFF" d="M22.286,19.755c-0.947,0-1.715-0.768-1.715-1.715c0-7.45-5.571-13.713-12.959-14.568
			c-0.94-0.11-1.614-0.96-1.506-1.901c0.11-0.939,0.956-1.612,1.901-1.505C17.124,1.122,24,8.849,24,18.041
			C24,18.987,23.233,19.755,22.286,19.755z"/>
	</g>
</g>
<g id="Nav_Overlay">
</g>
<g id="WxH_Proportions">
</g>
</svg>
