<?xml version="1.0" encoding="utf-8"?>
<!-- Generator: Adobe Illustrator 16.0.0, SVG Export Plug-In . SVG Version: 6.00 Build 0)  -->
<!DOCTYPE svg PUBLIC "-//W3C//DTD SVG 1.1//EN" "http://www.w3.org/Graphics/SVG/1.1/DTD/svg11.dtd">
<svg version="1.1" xmlns="http://www.w3.org/2000/svg" xmlns:xlink="http://www.w3.org/1999/xlink" x="0px" y="0px" width="24px"
	 height="24px" viewBox="0 0 24 24" enable-background="new 0 0 24 24" xml:space="preserve">
<g id="Modular_Grid" display="none">
</g>
<g id="_x34_px_Baseline_Grid">
</g>
<g id="Shape_overlay" display="none">
</g>
<g id="Mobile_Grid">
</g>
<g id="_x31_104px_12col_24px_gutter">
</g>
<g id="Design">
	<path id="Facebook_2_" fill="#FFFFFF" d="M8.819,4.647c0,0.604,0,3.305,0,3.305h-2.42v4.041h2.42V24h4.975V11.994h3.336
		c0,0,0.312-1.939,0.463-4.057c-0.434,0-3.781,0-3.781,0s0-2.352,0-2.764c0-0.41,0.543-0.968,1.078-0.968s1.664,0,2.711,0
		c0-0.549,0-2.449,0-4.205c-1.396,0-2.984,0-3.686,0C8.696,0,8.819,4.043,8.819,4.647z"/>
</g>
<g id="Nav_Overlay">
</g>
<g id="WxH_Proportions">
</g>
</svg>
