<?xml version="1.0" encoding="utf-8"?>
<!-- Generator: Adobe Illustrator 16.0.0, SVG Export Plug-In . SVG Version: 6.00 Build 0)  -->
<!DOCTYPE svg PUBLIC "-//W3C//DTD SVG 1.1//EN" "http://www.w3.org/Graphics/SVG/1.1/DTD/svg11.dtd">
<svg version="1.1" xmlns="http://www.w3.org/2000/svg" xmlns:xlink="http://www.w3.org/1999/xlink" x="0px" y="0px" width="26px"
	 height="24px" viewBox="0 0 26 24" enable-background="new 0 0 26 24" xml:space="preserve">
<g id="Modular_Grid" display="none">
</g>
<g id="_x34_px_Baseline_Grid">
</g>
<g id="Shape_overlay" display="none">
</g>
<g id="Mobile_Grid">
</g>
<g id="_x31_104px_12col_24px_gutter">
</g>
<g id="Design">
	<path id="LinkedIn_2_" fill="#FFFFFF" d="M25.558,14.711V24h-5.385v-8.664c0-2.176-0.775-3.661-2.725-3.661
		c-1.487,0-2.373,1-2.762,1.969c-0.143,0.347-0.18,0.828-0.18,1.315V24H9.122c0,0,0.073-14.673,0-16.195h5.385V10.1
		c-0.011,0.021-0.023,0.036-0.035,0.055h0.035V10.1C15.22,9,16.5,7.425,19.359,7.425C22.902,7.425,25.558,9.74,25.558,14.711z
		 M3.489,0C1.648,0,0.442,1.209,0.442,2.797c0,1.555,1.17,2.8,2.977,2.8h0.037c1.876,0,3.044-1.245,3.044-2.8
		C6.465,1.209,5.332,0,3.489,0z M0.763,24h5.383V7.805H0.763V24z"/>
</g>
<g id="Nav_Overlay">
</g>
<g id="WxH_Proportions">
</g>
</svg>
