<?xml version="1.0" encoding="utf-8"?>
<!-- Generator: Adobe Illustrator 16.0.0, SVG Export Plug-In . SVG Version: 6.00 Build 0)  -->
<!DOCTYPE svg PUBLIC "-//W3C//DTD SVG 1.1//EN" "http://www.w3.org/Graphics/SVG/1.1/DTD/svg11.dtd">
<svg version="1.1" xmlns="http://www.w3.org/2000/svg" xmlns:xlink="http://www.w3.org/1999/xlink" x="0px" y="0px" width="316px"
	 height="316px" viewBox="0 0 316 316" enable-background="new 0 0 316 316" xml:space="preserve">
<g id="Modular_Grid" display="none">
</g>
<g id="_x34_px_Baseline_Grid">
</g>
<g id="Shape_overlay" display="none">
</g>
<g id="Mobile_Grid">
</g>
<g id="_x31_104px_12col_24px_gutter">
</g>
<g id="Design">
	<circle fill="none" stroke="#6BC04B" stroke-width="1.0732" stroke-miterlimit="10" cx="63.287" cy="240.023" r="53.977"/>
	<circle fill="none" stroke="#6BC04B" stroke-width="1.0732" stroke-miterlimit="10" cx="158.001" cy="75.975" r="53.976"/>
	<g>
		<rect x="133.468" y="74.326" fill="#C8C8C8" width="36.942" height="9.778"/>
		<path fill="#C8C8C8" d="M163.89,61.287c-1.201,0-2.172,0.973-2.172,2.174c0,1.2,0.971,2.172,2.172,2.172s2.172-0.973,2.172-2.172
			C166.062,62.26,165.091,61.287,163.89,61.287"/>
		<polygon fill="#C8C8C8" points="181.275,63.911 181.275,84.741 182.362,85.827 182.362,62.824 		"/>
		<path fill="#C8C8C8" d="M185.621,56.941c-0.3,0-0.573,0.121-0.767,0.318l-12.27,12.27V59.114c0-2.399-1.947-4.345-4.346-4.345
			h-32.596c-2.401,0-4.346,1.945-4.346,4.345v30.422c0,2.401,1.945,4.348,4.346,4.348h32.596c2.399,0,4.346-1.947,4.346-4.348V79.12
			l12.27,12.272c0.194,0.197,0.467,0.318,0.767,0.318c0.6,0,1.085-0.485,1.085-1.088V58.028
			C186.706,57.427,186.221,56.941,185.621,56.941 M170.41,89.536c0,1.201-0.974,2.174-2.172,2.174h-32.596
			c-1.2,0-2.174-0.973-2.174-2.174V59.114c0-1.2,0.974-2.172,2.174-2.172h32.596c1.198,0,2.172,0.973,2.172,2.172V89.536z
			 M184.534,88l-11.951-11.951V72.6l11.951-11.949V88z"/>
	</g>
	<circle fill="none" stroke="#6BC04B" stroke-width="1.0732" stroke-miterlimit="10" cx="252.713" cy="240.023" r="53.977"/>
	<g>
		<path fill="#C8C8C8" d="M248.362,243.967c0-0.008,0.003-0.016,0.003-0.024h-9.881v1.094h10.743
			C248.733,244.933,248.362,244.494,248.362,243.967 M238.484,248.325h25.201v-1.096h-25.201V248.325z M238.484,251.613h20.815
			v-1.097h-20.815V251.613z"/>
		<path fill="#C8C8C8" d="M268.065,230.742v28.541h-33.961v-33.966h28.629l1.095-1.096h-30.82v36.156h36.154v-30.732
			L268.065,230.742z M258.962,237.803l0.773-0.773l-3.38-3.381l-0.775,0.775L258.962,237.803z"/>
		<path fill="#C8C8C8" d="M282.387,215.906c0.197-0.199,0.319-0.472,0.319-0.773c0-0.303-0.122-0.578-0.319-0.777l-3.288-3.288
			c-0.197-0.198-0.472-0.321-0.775-0.321c-0.302,0-0.576,0.123-0.775,0.321l-3.567,3.572c-0.75-0.23-1.596-0.057-2.188,0.535
			c-0.019,0.018-0.033,0.04-0.051,0.059l-4.652,4.607h-34.083c-2.42,0-4.383,1.96-4.383,4.38v36.156c0,2.42,1.963,4.382,4.383,4.382
			h36.154c2.42,0,4.383-1.962,4.383-4.382v-34.028l4.677-4.631c0.021-0.019,0.041-0.032,0.06-0.05
			c0.592-0.594,0.764-1.438,0.535-2.191l3.569-3.567V215.906z M271.796,218.28l3.381,3.381l-17.502,17.468l-3.381-3.384
			L271.796,218.28z M255.729,240.279l-4.31,1.725l1.724-4.312L255.729,240.279z M271.353,260.377c0,1.209-0.98,2.191-2.191,2.191
			h-36.154c-1.212,0-2.191-0.982-2.191-2.191v-36.156c0-1.209,0.979-2.191,2.191-2.191h31.891l-12.928,12.938l0.011,0.013
			c-0.12,0.125-0.223,0.267-0.276,0.436h-0.005l-3.239,8.101c-0.009,0.019-0.016,0.039-0.025,0.06l-0.022,0.062h0.006
			c-0.035,0.104-0.058,0.215-0.058,0.329c0,0.606,0.491,1.097,1.094,1.097c0.117,0,0.226-0.022,0.332-0.056v0.005l0.016-0.006
			c0.003-0.001,0.008-0.004,0.013-0.004l8.189-3.279l-0.002-0.004c0.169-0.056,0.312-0.155,0.434-0.276l0.011,0.009l12.904-12.912
			V260.377z M277.457,217.74L275.718,216l2.606-2.608l1.738,1.74L277.457,217.74z"/>
	</g>
	<g>
		<g>
			<path fill="#C8C8C8" d="M92.195,248.575l-5.455-5.288c0.147-1.068,0.231-2.156,0.231-3.264c0-1.108-0.084-2.194-0.231-3.261
				l5.455-5.288l-0.005-0.003c0.384-0.368,0.483-0.963,0.208-1.444l-5.921-10.282c-0.218-0.379-0.615-0.59-1.023-0.59
				c-0.109,0-0.219,0.016-0.325,0.046l-0.003-0.003l-7.294,2.092c-1.709-1.332-3.602-2.438-5.636-3.269l-1.84-7.372h-0.001
				c-0.13-0.518-0.592-0.9-1.146-0.9h-11.84c-0.557,0-1.019,0.382-1.147,0.9h-0.005l-1.838,7.372
				c-2.036,0.831-3.926,1.937-5.634,3.269l-7.294-2.092l-0.002,0.003c-0.109-0.03-0.217-0.046-0.328-0.046
				c-0.407,0-0.804,0.211-1.022,0.59l-5.921,10.282c-0.278,0.481-0.176,1.077,0.205,1.444l-0.001,0.003l5.453,5.288
				c-0.147,1.066-0.229,2.153-0.229,3.261c0,1.107,0.082,2.195,0.229,3.264l-5.453,5.288l0.001,0.001
				c-0.381,0.369-0.483,0.962-0.205,1.444l5.921,10.282c0.218,0.381,0.615,0.592,1.022,0.592c0.111,0,0.219-0.016,0.328-0.046
				l0.002,0.003l7.294-2.094c1.708,1.333,3.598,2.44,5.634,3.269l1.838,7.373h0.005c0.129,0.516,0.59,0.9,1.147,0.9h11.84
				c0.554,0,1.015-0.384,1.146-0.9h0.001l1.84-7.373c2.034-0.829,3.926-1.936,5.636-3.269l7.294,2.094l0.003-0.003
				c0.105,0.03,0.216,0.046,0.325,0.046c0.409,0,0.806-0.211,1.023-0.592l5.921-10.282c0.275-0.481,0.176-1.075-0.208-1.444
				L92.195,248.575z M84.888,258.313l-6.407-1.838c-0.214-0.061-0.432-0.091-0.649-0.091c-0.521,0-1.037,0.171-1.459,0.501
				c-1.549,1.212-3.257,2.202-5.069,2.941c-0.699,0.285-1.223,0.888-1.406,1.624l-1.614,6.475h-9.992l-1.616-6.475
				c-0.183-0.735-0.706-1.338-1.406-1.624c-1.812-0.739-3.516-1.729-5.07-2.941c-0.419-0.33-0.933-0.501-1.456-0.501
				c-0.218,0-0.436,0.03-0.651,0.091l-6.405,1.838l-4.998-8.677l4.79-4.642c0.542-0.527,0.801-1.281,0.699-2.031
				c-0.137-0.999-0.206-1.986-0.206-2.94c0-0.953,0.069-1.942,0.206-2.938c0.102-0.75-0.157-1.505-0.699-2.032l-4.79-4.642
				l4.998-8.677l6.405,1.838c0.216,0.062,0.434,0.092,0.651,0.092c0.522,0,1.037-0.173,1.456-0.503
				c1.554-1.213,3.259-2.201,5.07-2.94c0.7-0.285,1.223-0.889,1.406-1.624l1.616-6.475h9.992l1.614,6.475
				c0.183,0.735,0.707,1.339,1.406,1.624c1.812,0.74,3.52,1.728,5.069,2.94c0.422,0.33,0.938,0.503,1.459,0.503
				c0.217,0,0.435-0.03,0.649-0.092l6.407-1.838l4.996,8.677l-4.79,4.642c-0.542,0.527-0.801,1.282-0.699,2.032
				c0.137,0.996,0.206,1.984,0.206,2.938c0,0.954-0.069,1.941-0.206,2.94c-0.102,0.75,0.157,1.503,0.699,2.031l4.79,4.642
				L84.888,258.313z"/>
			<path fill="#C8C8C8" d="M63.586,228.151c-6.559,0-11.873,5.314-11.873,11.872c0,6.559,5.314,11.875,11.873,11.875
				c6.557,0,11.873-5.316,11.873-11.875C75.459,233.465,70.144,228.151,63.586,228.151z M63.586,249.522
				c-5.247,0-9.498-4.252-9.498-9.499c0-5.245,4.251-9.498,9.498-9.498c5.245,0,9.498,4.253,9.498,9.498
				C73.084,245.27,68.832,249.522,63.586,249.522z"/>
		</g>
		<circle fill="none" stroke="#C8C8C8" stroke-width="0.9058" stroke-miterlimit="10" cx="63.585" cy="240.023" r="14.597"/>
	</g>
	
		<line fill="none" stroke="#6BC04B" stroke-width="1.0732" stroke-miterlimit="10" x1="90.278" y1="193.272" x2="131.008" y2="122.727"/>
	
		<line fill="none" stroke="#6BC04B" stroke-width="1.0732" stroke-miterlimit="10" x1="199.238" y1="240.023" x2="117.257" y2="240.023"/>
	
		<line fill="none" stroke="#6BC04B" stroke-width="1.0732" stroke-miterlimit="10" x1="184.991" y1="122.727" x2="226.017" y2="193.785"/>
</g>
<g id="Nav_Overlay">
</g>
<g id="WxH_Proportions">
</g>
</svg>
