<?xml version="1.0" encoding="utf-8"?>
<!-- Generator: Adobe Illustrator 16.0.0, SVG Export Plug-In . SVG Version: 6.00 Build 0)  -->
<!DOCTYPE svg PUBLIC "-//W3C//DTD SVG 1.1//EN" "http://www.w3.org/Graphics/SVG/1.1/DTD/svg11.dtd">
<svg version="1.1" id="Layer_1" xmlns="http://www.w3.org/2000/svg" xmlns:xlink="http://www.w3.org/1999/xlink" x="0px" y="0px"
	 width="108px" height="84px" viewBox="0 0 108 84" enable-background="new 0 0 108 84" xml:space="preserve">
<g id="Modular_Grid" display="none">
</g>
<g id="_x34_px_Baseline_Grid">
</g>
<g id="Shape_overlay" display="none">
</g>
<g id="Mobile_Grid">
</g>
<g id="_x31_104px_12col_24px_gutter">
</g>
<g id="Nav_Overlay">
</g>
<g id="WxH_Proportions">
</g>
<g>
	<path fill="#FFFFFF" d="M7.172,65.594c-0.006,0.093-0.011,0.184-0.018,0.275c0.041,0.002,0.082,0.004,0.122,0.006
		c-0.007-0.094-0.015-0.188-0.023-0.281C7.226,65.594,7.199,65.594,7.172,65.594"/>
	<g>
		<path fill="#FFFFFF" d="M56.9,22.49c-0.152,0.162-0.304,0.324-0.453,0.484c0.068,0.32,0.133,0.629,0.209,0.996
			c0.267-0.295,0.365,0.031,0.545,0.162c0.178-0.176,0.369-0.213,0.594-0.119c0.24,0.102,0.399,0.246,0.378,0.531
			c-0.271,0.174-0.527,0.344-0.789,0.508c-0.412,0.262-0.839,0.432-1.329,0.225c-0.094-0.039-0.187-0.082-0.225-0.096
			c-0.22,0.107-0.383,0.221-0.562,0.262c-0.547,0.125-1.082,0.286-1.602,0.502c-0.367,0.154-0.732,0.32-1.112,0.436
			c-0.624,0.186-1.253,0.344-1.886,0.486c-0.533,0.121-1.075,0.195-1.595,0.381c-0.359,0.127-0.773,0.135-1.099,0.313
			c-0.582,0.319-1.157,0.187-1.764,0.114c0.162-0.168,0.367-0.275,0.517-0.438c0.161-0.175,0.271-0.398,0.405-0.607
			c-0.726-0.328-1.421-0.375-2.148-0.207c-0.083,0.092-0.161,0.232-0.281,0.306c-0.348,0.214-0.741,0.366-1.065,0.61
			c-0.518,0.39-1.006,0.818-1.484,1.258c-0.315,0.291-0.488,0.32-0.878,0.006c0.162-0.049,0.307-0.092,0.516-0.156
			c-0.322-0.223-0.516-0.461-0.502-0.82c0.003-0.072-0.08-0.164-0.146-0.217c-0.047-0.039-0.154-0.068-0.196-0.043
			c-0.204,0.133-0.421,0.264-0.585,0.436c-0.223,0.234-0.531,0.398-0.633,0.736c-0.016,0.045-0.085,0.09-0.136,0.111
			c-0.307,0.123-0.454,0.408-0.525,0.674c-0.077,0.283-0.241,0.508-0.35,0.762c-0.122,0.289-0.458,0.482-0.375,0.861
			c0.005,0.018-0.036,0.045-0.051,0.071c-0.179,0.284-0.769,0.304-0.663,0.624c0.044,0.133,0.071,0.311,0.021,0.434
			c-0.138,0.328-0.326,0.633-0.481,0.953c-0.165,0.334-0.645,0.381-0.715,0.797c-0.002,0.01-0.021,0.025-0.033,0.025
			c-0.297,0.018-0.412,0.27-0.575,0.453c-0.326,0.365-0.746,0.469-1.21,0.469c-0.102,0.002,0.368,0.248,0.271,0.27
			c-0.659,0.154-1.102,0.627-1.389,1.168c-0.197,0.375-0.377,0.732-0.718,0.976c-0.144,0.103-0.348,0.19-0.517,0.185
			c-0.66-0.027-2.47,5.062-2.279,5.139c-0.192,0.336-0.356,0.623-0.561,0.982c0.004,0.107,0.319,0.303,0.051,0.506
			c-0.288,0.217,1.096,0.441,0.974,0.639c-0.023,0.039-0.986,0.854-1,0.539c-0.237,0.201-0.421,0.484-0.692,0.615
			c-0.431,0.209-0.887,0.418-1.271,0.732c0.016,0.068-0.317,0.141-0.307,0.193c-0.166,0.021-0.797,0.182-1.188,0.41
			c-0.129,0.074-0.312,0.144-0.353,0.256c-0.078,0.223-0.256,0.285-0.424,0.354c-0.267,0.109-0.524,0.215-0.739,0.414
			c-0.068,0.062-0.187,0.077-0.285,0.102c-0.126,0.029-0.262,0.025-0.372,0.078c-0.154,0.076-0.277,0.223-0.434,0.289
			c-0.474,0.201-0.962,0.367-1.434,0.57c-0.38,0.165-0.754,0.344-1.112,0.549c-0.29,0.168-0.543,0.396-0.827,0.578
			c-0.561,0.354-1.146,0.676-1.696,1.047c-0.624,0.42-1.225,0.877-1.828,1.328c-0.296,0.221-0.566,0.473-0.865,0.693
			c-0.341,0.25-0.709,0.463-1.048,0.72c-0.303,0.228-0.577,0.491-0.865,0.735c-0.18,0.152-0.359,0.306-0.553,0.443
			c-0.38,0.273-0.631,0.674-0.996,0.975c-0.672,0.561-1.29,1.189-1.901,1.818c-0.357,0.371-0.663,0.797-0.986,1.203
			c-0.387,0.486-0.773,0.969-1.14,1.469c-0.128,0.172-0.188,0.397-0.282,0.594c-0.051,0.105-0.083,0.252-0.169,0.309
			c-0.34,0.219-0.441,0.598-0.631,0.908c-0.179,0.297-0.319,0.654-0.082,1.003c0.099,0.138,0.237,0.251,0.338,0.354
			c-0.092,0.418-0.246,0.812,0,1.217c0.095-0.143,0.144-0.291,0.183-0.441c0.094-0.355,0.104-0.766,0.29-1.059
			c0.333-0.528,0.587-1.094,0.886-1.637c0.124-0.229,0.332-0.414,0.475-0.637c0.476-0.754,0.996-1.469,1.602-2.129
			c0.675-0.738,1.366-1.462,2.142-2.102c0.331-0.273,0.643-0.574,0.982-0.836c0.868-0.662,1.707-1.357,2.639-1.934
			c0.617-0.379,1.215-0.787,1.825-1.17c0.652-0.406,1.312-0.805,1.976-1.191c0.237-0.139,0.444-0.344,0.755-0.342
			c0.085,0,0.203-0.09,0.244-0.17c0.156-0.295,0.366-0.457,0.702-0.551c0.47-0.133,0.831-0.508,1.296-0.68
			c0.35-0.131,0.608-0.432,0.97-0.553c0.062-0.021,0.14-0.082,0.156-0.139c0.06-0.205,0.232-0.223,0.389-0.246
			c0.483-0.078,0.916-0.255,1.28-0.589c0.049-0.046,0.129-0.06,0.196-0.084c0.207-0.081,0.423-0.144,0.621-0.243
			c0.532-0.268,1.013-0.773,1.554-1.021c0.35-0.162,0.563-0.694,0.937-0.797c0.035-0.008-0.099,0.137-0.211,0.281
			c-0.149,0.188-0.268,0.375,0.041,0.227c0.532-0.254,1.52-0.814,2.04-1.057c0.398-0.189,0.771-0.558,1.162-0.74
			c0.729-0.336,1.462-0.479,2.152-0.793c0.845-0.381,1.658-0.744,2.44-1.088c0.519-0.226,1.513-0.273,2-0.482
			c1.426-0.607,2.229-1.301,3.359-1.729c0.392-0.148,0.739-0.451,1.105-0.582c0.453-0.164,1.113-0.217,1.523-0.353
			c0.317-0.106,0.732-0.087,1.129-0.067c0.352,0.018,0.689,0.037,0.927-0.035c0.705-0.209,1.964-0.488,2.496-0.647
			c0.811-0.243,1.211-0.306,3.057-0.245c0.146,0.006,1.13,0.188,1.284,0.189c0.15,0.004,0.47-0.035,0.788-0.074
			c0.325-0.039,0.651-0.077,0.802-0.074c0.236,0.008,0.545-0.033,0.851-0.078c0.313-0.041,0.622-0.086,0.853-0.074
			c0.287,0.012,0.676,0.004,1.057-0.006c0.458-0.011,0.907-0.021,1.178,0.006c1.295,0.129,1.483,0.408,1.187,0.33
			c-0.111-0.029-0.258-0.176-1.151-0.143c-0.117,0.006-0.507,0.186-0.643,0.191c-0.108,0.002-0.221-0.027-0.341-0.061
			c-0.129-0.031-0.267-0.064-0.411-0.055c-0.378,0.027-1.124,0.258-1.565,0.293c-2.896,0.223-6.852,0.562-7.374,0.67
			c-1.117,0.227-2.659,0.549-4.802,1.339c-0.359,0.132-1.025,0.532-1.402,0.677c-0.2,0.076-0.55,0.107-0.749,0.188
			c-1.072,0.43-0.156,1.293-1.238,1.734c-0.526,0.215-1.229,0.303-1.73,0.514c-0.307,0.131-0.705,0.531-0.997,0.654
			c-0.343,0.146-0.815,0.121-1.133,0.258c-0.163,0.072-0.339,0.408-0.485,0.492c-1.031,0.596-1.223,0.352-1.317,0.111
			c-0.09-0.225-0.097-0.449-0.607-0.012c-0.281,0.242-0.315,0.439-0.558,0.552c-0.472,0.214-0.943,0.642-0.943,0.642
			s0.767,0.229,1.052,0.152c0.152-0.041-1.001,1.344-0.944,1.441c0.139,0.24,0.385,0.314,0.554,0.484
			c0.421,0.422,0.849,0.439,1.362,0.18c0.273-0.139,0.553-0.317,0.912-0.195c0.485,0.166,0.989,0.285,1.486,0.414
			c0.27,0.068,0.546,0.115,0.818,0.175c0.055,0.011,0.123,0.015,0.153,0.05c0.343,0.377,0.838,0.439,1.275,0.564
			c0.458,0.129,0.96,0.094,1.441,0.131c0.166,0.428,0.129,0.531-0.247,0.699c-0.055,0.023-0.116,0.025-0.17,0.045
			c-0.356,0.134-0.563,0.619-0.414,0.963c0.122,0.275,0.52,0.449,0.814,0.354c0.152-0.049,0.305-0.099,0.447-0.145
			c0.248,0.18,0.414,0.391,0.387,0.682c-0.03,0.33,0.105,0.615,0.214,0.902c0.143,0.369,0.76,0.654,1.119,0.484
			c0.391-0.184,0.755-0.422,1.123-0.647c0.064-0.041,0.104-0.14,0.132-0.216c0.156-0.416,0.368-0.488,0.74-0.241
			c0.193,0.128,0.39,0.207,0.629,0.166c0.062-0.013,0.136,0.015,0.202,0.032c0.362,0.096,0.722,0.211,1.089,0.287
			c0.608,0.127,1.225,0.223,1.836,0.344c0.37,0.072,0.734,0.186,1.106,0.24c0.581,0.082,1.175,0.09,1.711,0.375
			c0.06,0.033,0.146,0.018,0.221,0.018c0.628,0,1.241,0.154,1.876,0.146c0.604-0.008,1.214,0.078,1.812,0.184
			c0.141,0.025,0.281,0.016,0.42,0.006c0.209-0.016,0.414-0.029,0.624,0.068c0.322,0.15,0.384,0.195,0.221,0.518
			c-0.134,0.266-0.305,0.51-0.444,0.771c-0.131,0.252-0.376,0.484-0.272,0.803c0.222,0.668,0.178,1.418,0.629,2.012
			c0.032,0.043,0.021,0.117,0.023,0.178c0.032,0.459,0.287,0.807,0.674,0.988c0.6,0.281,1.209,0.727,1.908,0.213
			c0.01-0.008,0.028-0.014,0.04-0.012c0.302,0.043,0.411-0.171,0.536-0.38c0.092-0.151,0.223-0.282,0.299-0.44
			c0.176-0.361,0.463-0.693,0.312-1.154c-0.054-0.166-0.067-0.355-0.053-0.529c0.021-0.227,0.087-0.447,0.151-0.753
			c-0.039,0.036-0.009,0.007,0.023-0.024c0.387-0.354,0.361-0.566-0.088-0.812c-0.066-0.036-0.143-0.055-0.2-0.102
			c-0.253-0.195-0.569-0.332-0.665-0.715c0.14-0.068,0.265-0.146,0.404-0.191c0.219-0.074,0.473-0.086,0.675-0.15
			c0.247-0.082,0.452-0.117,0.702-0.062c0.2,0.043,0.41,0.061,0.613,0.043c0.824-0.072,1.648-0.092,2.474-0.125
			c0.132-0.006,0.271-0.023,0.395-0.07c0.326-0.115,0.649-0.197,1.006-0.141c0.122,0.021,0.262-0.045,0.391-0.074
			c0.139-0.029,0.277-0.088,0.417-0.094c0.638-0.031,1.248-0.135,1.83-0.424c0.18-0.088,0.42-0.199,0.656-0.068
			c0.012,0.008,0.047-0.021,0.074-0.039c0.007-0.055,0.011-0.111,0.021-0.2c0.078,0.046,0.146,0.089,0.196,0.12
			c0.271-0.113,0.574-0.168,0.775-0.342c0.334-0.289,0.723-0.383,1.121-0.477c0.187-0.043,0.315-0.121,0.431-0.279
			c0.211-0.287,0.435-0.561,0.772-0.721c0.096-0.043,0.16-0.158,0.256-0.259c-0.629-0.55-0.692-1.294-0.875-2.017
			c0.174-0.074,0.305-0.158,0.444-0.184c0.868-0.16,1.702-0.436,2.544-0.691c0.193-0.061,0.387-0.141,0.564-0.238
			c0.326-0.178,0.64-0.377,0.962-0.561c0.182-0.103,0.256-0.062,0.313,0.133c0.032,0.105,0.071,0.217,0.134,0.305
			c0.311,0.43,1.255-0.887,1.183-1.225c-0.019-0.082,0.046-0.207,0.11-0.275c0.305-0.334,0.583-0.709,0.942-0.967
			c0.377-0.268,0.624-0.619,0.913-0.955c0.201-0.238,0.387-0.504,0.629-0.691c0.605-0.461,1.142-0.982,1.55-1.627
			c0.039-0.059,0.094-0.121,0.154-0.146c0.234-0.09,0.472-0.174,0.713-0.246c0.665-0.203,1.333-0.395,1.998-0.596
			c0.156-0.047,0.295-0.142,0.451-0.17c1.37-0.254,2.666-0.762,3.997-1.145c0.456-0.131,0.891-0.422,1.345-0.451
			c0.706-0.041,1.225-0.451,1.855-0.682c-0.21-0.348-0.475-0.518-0.854-0.5c-0.327,0.014-0.658,0.055-0.98,0.014
			c-0.364-0.045-0.735-0.127-1.071-0.266c-0.612-0.254-1.199-0.566-1.805-0.842c-0.207-0.094-0.421-0.103-0.621,0.064
			c-0.085,0.072-0.212,0.129-0.32,0.131c-0.244,0.01-0.424,0.115-0.555,0.305c-0.168,0.246-0.336,0.486-0.651,0.559
			c-0.037,0.01-0.073,0.057-0.09,0.096c-0.149,0.325-0.415,0.352-0.737,0.354c-0.294,0.002-0.625,0.017-0.789,0.381
			c-0.357-0.301-0.69-0.135-1.027-0.02c-0.151,0.049-0.314,0.1-0.467,0.096c-0.426-0.014-0.826,0.029-1.179,0.34
			c-0.263-0.305-0.584-0.34-0.928-0.232c-0.165,0.051-0.322,0.032-0.4-0.104c-0.132-0.239-0.353-0.321-0.573-0.436
			c-0.188-0.1-0.396-0.186-0.449-0.451c-0.022-0.117-0.153-0.215-0.236-0.316c-0.235-0.286-0.217-0.525,0.058-0.766
			c0.126-0.111,0.243-0.234,0.37-0.359c0.313,0.061,0.653,0.129,0.939-0.062c0.265-0.178,0.533-0.213,0.838-0.234
			c0.313-0.021,0.707-0.025,0.854-0.361c0.096-0.217,0.234-0.385,0.384-0.523c0.44-0.41,0.936-0.684,1.588-0.469
			c0.215,0.072,0.468,0.047,0.701,0.047c0.265,0,0.384-0.207,0.483-0.406c0.024-0.049-0.035-0.186-0.091-0.215
			c-0.416-0.211-0.895-0.295-1.254-0.627c-0.035-0.035-0.111-0.031-0.17-0.035c-0.302-0.014-0.566-0.123-0.832-0.268
			c-0.297-0.162-0.623-0.262-0.937-0.393c-0.304-0.123-0.605-0.25-0.909-0.371c-0.479-0.191-0.968-0.365-1.441-0.57
			c-0.352-0.152-0.679-0.35-0.955-0.635c-0.258-0.266-0.544-0.52-0.861-0.702c-0.546-0.319-1.125-0.583-1.692-0.864
			c-0.068-0.033-0.172-0.014-0.234-0.052c-0.557-0.374-0.557-0.377-0.131-0.931c0.257-0.336,0.47-0.688,0.494-1.125
			c0.017-0.344-0.251-0.566-0.57-0.443c-0.202,0.074-0.414,0.182-0.562,0.331c-0.399,0.407-1.067,0.573-1.118,1.298
			c-0.483-0.15-0.939-0.213-1.345-0.5c-0.37-0.258-0.861-0.348-1.119-0.757c0.019-0.028,0.037-0.06,0.054-0.089
			c0.14,0.059,0.281,0.117,0.41,0.171c0.354-0.46,0.695-0.907,1.038-1.351c-0.517-0.498-0.744-0.609-1.341-0.719
			c-0.121-0.021-0.239-0.1-0.342-0.178c-0.198-0.148-0.388-0.21-0.656-0.18c-0.447,0.053-0.829,0.236-1.191,0.467
			c-0.193,0.125-0.322,0.1-0.482-0.061c0.092-0.371-0.027-0.691-0.252-0.992c-0.145-0.192-0.301-0.273-0.538-0.186
			c-0.21,0.078-0.428,0.131-0.636,0.211c-0.361,0.139-0.773,0.219-1.062,0.451c-0.337,0.271-0.602,0.236-0.926,0.066
			c-0.118-0.061-0.247-0.109-0.378-0.139c-0.656-0.152-1.316-0.301-1.976-0.439c-0.138-0.031-0.283-0.023-0.426-0.039
			c-0.068-0.006-0.165-0.002-0.197-0.045c-0.118-0.148-0.237-0.117-0.395-0.072c-0.101,0.031-0.287,0.012-0.331-0.053
			c-0.101-0.164-0.249-0.145-0.387-0.164c-0.273-0.039-0.463-0.109-0.502-0.451c-0.041-0.326-0.397-0.412-0.647-0.186
			c-0.064,0.06-0.103,0.146-0.153,0.217c-0.088,0.125-0.208,0.184-0.346,0.096c-0.146-0.098-0.108-0.23-0.019-0.35
			c0.178-0.234,0.359-0.469,0.548-0.713c-0.37-0.647-0.946-0.393-1.53-0.324c0.09-0.493,0.348-0.939,0.108-1.395
			c-0.252-0.17-0.593-0.156-0.804-0.426c-0.039-0.048-0.2-0.055-0.278-0.02c-0.373,0.166-0.726,0.26-1.064-0.078
			c-0.048-0.051-0.105-0.072-0.165-0.072C57.027,22.396,56.96,22.426,56.9,22.49"/>
		<path fill="#FFFFFF" d="M33.969,54.928c-0.129,0.023-0.263,0.012-0.394,0.006c-0.435-0.027-0.732,0.137-0.902,0.463
			c-0.132,0.254-0.344,0.475-0.438,0.738c-0.108,0.293-0.182,0.593-0.387,0.836c-0.009,0.009-0.003,0.029,0,0.043
			c0.09,0.393,0.067,0.812,0.312,1.166c0.13,0.191,0.237,0.4,0.359,0.598c0.021,0.039,0.054,0.07,0.086,0.1
			c0.354,0.34,0.833,0.396,1.271,0.533c0.102,0.031,0.311-0.033,0.356-0.117c0.108-0.199,0.28-0.18,0.444-0.227
			c0.21-0.062,0.465-0.107,0.601-0.252c0.279-0.307,0.5-0.67,0.73-1.02c0.063-0.096,0.087-0.219,0.112-0.334
			c0.039-0.186,0.066-0.375,0.106-0.639c-0.143-0.115-0.191-0.283-0.18-0.511c0.007-0.147-0.146-0.304-0.233-0.448
			c-0.038-0.059-0.114-0.095-0.149-0.154c-0.319-0.547-0.757-0.813-1.323-0.813C34.223,54.896,34.098,54.906,33.969,54.928"/>
		<path fill="#FFFFFF" d="M66.176,57.998c-0.247,0.1-0.532,0.301-0.636,0.619c-0.053,0.166-0.12,0.326-0.185,0.488
			c-0.085,0.213-0.159,0.415-0.071,0.66c0.067,0.184,0.054,0.396,0.078,0.596c-0.018,0.029-0.034,0.061-0.05,0.092
			c0.167,0.084,0.333,0.168,0.499,0.254c0.066,0.033,0.161,0.053,0.188,0.106c0.244,0.466,0.739,0.606,1.133,0.87
			c0.529,0.35,1.002,0.201,1.297-0.346c0.05-0.092,0.098-0.192,0.172-0.256c0.24-0.201,0.317-0.465,0.309-0.754
			c-0.012-0.31-0.042-0.623-0.078-0.932c-0.095-0.791-0.621-1.205-1.31-1.479c-0.18-0.07-0.355-0.1-0.532-0.1
			C66.709,57.818,66.433,57.895,66.176,57.998"/>
		<path fill="#FFFFFF" d="M30.288,27.283c-0.067,0.072-0.214,0.094-0.325,0.098c-0.177,0.006-0.35-0.025-0.616-0.047
			c-0.028,0.283-0.038,0.549-0.084,0.805c-0.036,0.199-0.083,0.408-0.186,0.574c-0.132,0.219-0.115,0.412,0.038,0.57
			c0.147,0.153,0.349,0.252,0.556,0.395c0.039,0.375,0.309,0.574,0.716,0.484c0.085-0.016,0.18-0.019,0.26,0.004
			c0.316,0.088,0.608-0.02,0.914-0.074c0.214-0.037,0.383-0.123,0.447-0.314c0.08-0.238,0.283-0.423,0.248-0.727
			c-0.014-0.115,0.062-0.362,0.268-0.436c0.191-0.064,0.136-0.248,0.096-0.334c-0.08-0.182,0.014-0.443-0.225-0.547
			c-0.054-0.023-0.136,0.029-0.207,0.034c-0.081,0.003-0.207,0.03-0.242-0.011c-0.166-0.205-0.421-0.361-0.402-0.645
			c-0.196-0.121-0.38-0.178-0.553-0.178C30.739,26.936,30.509,27.055,30.288,27.283"/>
		<path fill="#FFFFFF" d="M73.422,23.885c-0.221,0.486-0.253,0.986-0.303,1.494c-0.008,0.064,0.038,0.145,0.08,0.203
			c0.19,0.275,0.099,0.516-0.056,0.772c-0.09,0.147-0.163,0.333-0.163,0.5c0.004,0.14,0.09,0.317,0.197,0.411
			c0.072,0.062,0.279,0.055,0.371-0.004c0.456-0.303,0.872-0.656,1.092-1.18c0.101-0.24,0.289-0.352,0.522-0.438
			c0.52-0.192,0.67-0.726,0.979-1.112c0.024-0.027,0.004-0.086,0.006-0.129c0.012-0.246-0.128-0.428-0.214-0.639
			c-0.131-0.314-0.368-0.418-0.612-0.52c-0.263-0.109-0.56-0.14-0.784-0.191C74.062,23.283,73.639,23.404,73.422,23.885"/>
		<path fill="#FFFFFF" d="M56.858,68.162c-0.237,0.215-0.472,0.457-0.635,0.731c-0.13,0.22-0.21,0.505-0.205,0.759
			c0.012,0.51,0.083,1.02,0.154,1.525c0.041,0.291,0.071,0.607,0.21,0.854c0.135,0.242,0.135,0.443,0.064,0.676
			c-0.033,0.113-0.09,0.221-0.115,0.334c-0.051,0.225,0.025,0.33,0.248,0.396c0.191,0.057,0.326-0.001,0.382-0.191
			c0.039-0.141,0.049-0.291,0.065-0.435c0.013-0.084-0.017-0.185,0.018-0.253c0.164-0.326,0.35-0.645,0.516-0.971
			c0.098-0.197,0.193-0.399,0.263-0.608c0.102-0.308,0.149-0.638,0.278-0.935c0.113-0.264,0.147-0.51,0.11-0.799
			c-0.149-0.303-0.282-0.617-0.448-0.91c-0.092-0.16-0.366-0.264-0.602-0.264C57.041,68.072,56.93,68.1,56.858,68.162"/>
		<path fill="#FFFFFF" d="M51.373,23.842c-0.212,0.025-0.412,0.133-0.617,0.207c-0.119,0.043-0.258,0.066-0.346,0.146
			c-0.38,0.35-0.477,1.025-0.234,1.471c0.292,0.533,0.867,0.838,1.467,0.725c0.27-0.156,0.575-0.361,0.688-0.744
			c0.093-0.32-0.112-0.674,0.1-0.984c0.006-0.008-0.005-0.027-0.008-0.041c-0.092-0.432-0.515-0.785-0.953-0.785
			C51.436,23.836,51.404,23.836,51.373,23.842"/>
		<path fill="#FFFFFF" d="M79.507,24.604c-0.178,0.071-0.35,0.166-0.509,0.269c-0.221,0.143-0.373,0.342-0.377,0.617
			c-0.003,0.207,0.014,0.414,0.029,0.621c0.032,0.412,0.288,0.646,0.663,0.729c0.255,0.056,0.56,0.127,0.776,0.037
			c0.297-0.127,0.554-0.381,0.78-0.621c0.096-0.096,0.073-0.303,0.105-0.459c-0.161-0.643-0.543-1.041-1.172-1.197
			c-0.048-0.01-0.101-0.02-0.154-0.02C79.599,24.58,79.548,24.588,79.507,24.604"/>
		<path fill="#FFFFFF" d="M84.938,29.189c-0.299,0.229-0.221,0.588-0.224,0.91c0,0.018,0.003,0.031,0.005,0.046
			c0.068,0.294,0.016,0.56-0.202,0.78c-0.132,0.137-0.132,0.271-0.051,0.443c0.099,0.207,0.257,0.246,0.441,0.199
			c0.136-0.033,0.258-0.176,0.388-0.175c0.45,0,0.619-0.407,0.935-0.599c0.063-0.037,0.11-0.152,0.109-0.233
			c-0.006-0.292,0.13-0.509,0.362-0.704c-0.071-0.217-0.143-0.426-0.215-0.635c-0.053-0.156-0.175-0.229-0.328-0.268
			c-0.134-0.035-0.264-0.053-0.392-0.053C85.467,28.902,85.188,28.996,84.938,29.189"/>
		<path fill="#FFFFFF" d="M65.993,23.102c-0.016,0.003-0.027,0.008-0.044,0.012c-0.145,0.027-0.292,0.053-0.437,0.082
			c-0.412,0.082-0.871,0.754-0.77,1.262c0.113,0.205,0.279,0.5,0.446,0.797c0.159,0.283,0.424,0.328,0.691,0.258
			c0.271-0.072,0.497-0.227,0.635-0.508c0.113-0.232,0.297-0.428,0.447-0.643c0.041-0.057,0.087-0.119,0.099-0.186
			c0.074-0.446-0.532-1.078-0.999-1.078C66.041,23.098,66.015,23.098,65.993,23.102"/>
		<path fill="#FFFFFF" d="M63.613,12.729c-0.602,0.446-0.426,1.278,0.025,1.626c0.345,0.268,0.709,0.309,1.119,0.096
			c0.74-0.385,0.869-1.256,0.236-1.775c-0.141-0.117-0.315-0.191-0.513-0.307C64.204,12.511,63.887,12.524,63.613,12.729"/>
		<path fill="#FFFFFF" d="M49.515,56.297c-0.333,0.336-0.285,0.719-0.184,1.219c0.103,0.605,0.604,0.959,1.167,0.709
			c0.492-0.221,0.706-0.646,0.739-1.168c0.024-0.367-0.312-0.827-0.712-0.993c-0.088-0.04-0.19-0.056-0.292-0.056
			C49.971,56.008,49.688,56.119,49.515,56.297"/>
		<path fill="#FFFFFF" d="M76.516,12.856c-0.397,0.045-0.568,0.402-0.723,0.758c-0.041,0.092-0.02,0.254,0.04,0.34
			c0.211,0.303,0.425,0.609,0.684,0.869c0.297,0.301,0.642,0.357,0.881,0.178c0.304-0.225,0.571-0.496,0.505-0.922
			c-0.034-0.223-0.102-0.445-0.187-0.654c-0.138-0.338-0.575-0.59-0.999-0.59C76.647,12.835,76.581,12.843,76.516,12.856"/>
		<path fill="#FFFFFF" d="M93.566,30.979c-0.155,0.229-0.379,0.457-0.302,0.805c0.149,0.682,0.52,0.951,1.208,0.84
			c0.029-0.006,0.058-0.014,0.143-0.031c0.217,0.004,0.466-0.121,0.562-0.355c0.119-0.279,0.156-0.598,0.192-0.904
			c0.012-0.1-0.062-0.227-0.128-0.322c-0.166-0.252-0.521-0.383-0.871-0.383C94.045,30.627,93.727,30.742,93.566,30.979"/>
		<path fill="#FFFFFF" d="M97.792,36.34c-0.2,0.1-0.437,0.551-0.416,0.775c0.055,0.615,0.612,0.85,1.365,0.785
			c0.283-0.005,0.463-0.344,0.729-0.543c0.287-0.215,0.287-0.457,0.041-0.717c-0.267-0.283-0.688-0.439-1.098-0.439
			C98.197,36.201,97.98,36.246,97.792,36.34"/>
		<path fill="#FFFFFF" d="M62.289,22.199c-0.177,0.354-0.146,0.465,0.265,0.873c-0.136,0.143-0.258,0.271-0.377,0.4
			c-0.383,0.412-0.388,0.686-0.019,1.113c0.307,0.355,0.872,0.285,1.029-0.152c0.104-0.281,0.214-0.592,0.016-0.896
			c-0.095-0.146-0.154-0.314-0.242-0.502c0.403-0.012,0.362-0.387,0.475-0.621c0.051-0.109-0.058-0.357-0.166-0.467
			c-0.058-0.057-0.149-0.08-0.257-0.08C62.743,21.867,62.381,22.018,62.289,22.199"/>
		<path fill="#FFFFFF" d="M67.336,8.421C67.18,8.439,67,8.434,66.882,8.513c-0.251,0.166-0.384,1.123-0.224,1.369
			c0.014,0.027,0.032,0.057,0.058,0.07c0.278,0.135,0.517,0.424,0.884,0.242c0.561-0.127,0.866-0.449,0.903-0.988
			c0.017-0.238-0.04-0.439-0.288-0.595c-0.224-0.142-0.447-0.204-0.686-0.204C67.465,8.407,67.402,8.411,67.336,8.421"/>
		<path fill="#FFFFFF" d="M87.105,31.232c-0.143,0.141-0.312,0.26-0.428,0.42c-0.107,0.15-0.012,0.301,0.09,0.441
			c0.348,0.49,0.833,0.504,1.375,0.471c0.18-0.09,0.381-0.158,0.54-0.279c0.247-0.184,0.244-0.617,0.007-0.816
			c-0.251-0.211-0.502-0.428-0.872-0.354c-0.055,0.012-0.129,0.012-0.171-0.018c-0.073-0.049-0.138-0.068-0.199-0.068
			C87.315,31.029,87.21,31.127,87.105,31.232"/>
		<path fill="#FFFFFF" d="M59.895,12.399c-0.455,0.006-0.67,0.309-0.842,0.672c-0.163,0.344-0.042,0.639,0.173,0.898
			c0.105,0.131,0.262,0.293,0.407,0.307c0.211,0.02,0.536-0.016,0.624-0.15c0.195-0.301,0.526-0.602,0.327-1.053
			c-0.008-0.047-0.015-0.105-0.028-0.164c-0.081-0.354-0.281-0.51-0.643-0.51C59.906,12.399,59.9,12.399,59.895,12.399"/>
		<path fill="#FFFFFF" d="M53.537,59.436c-0.329,0.391-0.271,0.893,0.14,1.248c0.214,0.188,0.461,0.266,0.776,0.227
			c0.036-0.017,0.112-0.037,0.163-0.084c0.339-0.291,0.383-1.031,0.092-1.373c-0.145-0.17-0.377-0.254-0.604-0.254
			C53.884,59.199,53.67,59.277,53.537,59.436"/>
		<path fill="#FFFFFF" d="M36.258,64.725c-0.42,0.059-0.644,0.381-0.586,0.844c0.064,0.502,0.288,0.703,0.719,0.643
			c0.346-0.047,0.739-0.494,0.693-0.785c-0.078-0.494-0.276-0.715-0.658-0.715C36.374,64.711,36.317,64.717,36.258,64.725"/>
		<path fill="#FFFFFF" d="M62.278,16.755c-0.187,0.287-0.332,0.598-0.315,0.955c0.014,0.275,0.145,0.467,0.347,0.506
			c0.297,0.061,0.484-0.025,0.634-0.281c0.064-0.117,0.154-0.221,0.207-0.34c0.071-0.168,0.117-0.344,0.145-0.43
			c-0.062-0.342-0.165-0.549-0.412-0.598c-0.06-0.01-0.122-0.018-0.186-0.018C62.536,16.55,62.381,16.599,62.278,16.755"/>
		<path fill="#FFFFFF" d="M35.831,60.926c-0.062,0.062-0.126,0.125-0.184,0.18c-0.012,0.299-0.051,0.551-0.021,0.793
			c0.019,0.16,0.1,0.363,0.222,0.441c0.096,0.061,0.354,0.012,0.438-0.082c0.23-0.25,0.409-0.549,0.428-0.908
			c0.017-0.277-0.159-0.443-0.366-0.566c-0.058-0.033-0.112-0.047-0.165-0.047C36.052,60.736,35.937,60.824,35.831,60.926"/>
		<path fill="#FFFFFF" d="M36.971,28.246c-0.332,0.074-0.512,0.363-0.431,0.697c0.095,0.406,0.38,0.633,0.705,0.564
			c0.472-0.098,0.624-0.379,0.482-0.896c-0.064-0.24-0.296-0.387-0.573-0.387C37.093,28.225,37.031,28.23,36.971,28.246"/>
		<path fill="#FFFFFF" d="M87.119,25.043c-0.301,0.021-0.613,0.086-0.883,0.211c-0.1,0.045-0.152,0.322-0.127,0.477
			c0.066,0.387,0.319,0.52,0.723,0.426c0.086-0.018,0.18-0.021,0.261-0.057c0.239-0.102,0.387-0.35,0.372-0.605
			c-0.016-0.221-0.149-0.453-0.331-0.453C87.129,25.041,87.124,25.041,87.119,25.043"/>
		<path fill="#FFFFFF" d="M81.936,12.462c-0.354,0.039-0.661,0.406-0.614,0.734c0.057,0.379,0.309,0.604,0.658,0.578
			c0.343-0.025,0.57-0.443,0.506-0.943c-0.024-0.189-0.278-0.373-0.506-0.373C81.966,12.458,81.949,12.46,81.936,12.462"/>
		<path fill="#FFFFFF" d="M87.424,16.208c-0.044,0.008-0.088,0.012-0.132,0.014c-0.331,0.055-0.573,0.342-0.611,0.721
			c-0.02,0.219,0.064,0.348,0.275,0.375c0.302,0.039,0.587-0.004,0.827-0.219c0.166-0.148,0.271-0.512,0.177-0.682
			c-0.092-0.166-0.229-0.223-0.387-0.223C87.525,16.194,87.475,16.2,87.424,16.208"/>
		<path fill="#FFFFFF" d="M90.191,30.553c-0.305,0.072-0.521,0.341-0.481,0.6c0.037,0.252,0.499,0.588,0.729,0.529
			c0.309-0.082,0.558-0.438,0.499-0.717c-0.062-0.283-0.258-0.438-0.536-0.438C90.338,30.527,90.267,30.535,90.191,30.553"/>
		<path fill="#FFFFFF" d="M50.973,59.699c-0.22,0.314-0.122,0.895,0.188,1.113c0.182,0.129,0.437,0.1,0.531-0.102
			c0.09-0.188,0.108-0.412,0.144-0.564c-0.086-0.195-0.13-0.322-0.198-0.434c-0.095-0.151-0.21-0.229-0.329-0.229
			C51.191,59.484,51.075,59.557,50.973,59.699"/>
		<path fill="#FFFFFF" d="M95.578,11.954c-0.159,0.031-0.315,0.09-0.463,0.156c-0.286,0.135-0.341,0.416-0.143,0.658
			c0.172,0.209,0.518,0.305,0.725,0.201c0.224-0.113,0.361-0.455,0.299-0.738c-0.045-0.197-0.126-0.289-0.296-0.289
			C95.663,11.942,95.622,11.946,95.578,11.954"/>
		<path fill="#FFFFFF" d="M80.584,18.278c-0.256,0.043-0.439,0.377-0.389,0.707c0.055,0.338,0.214,0.443,0.563,0.381
			c0.302-0.055,0.485-0.283,0.444-0.557c-0.048-0.316-0.276-0.539-0.541-0.539C80.637,18.271,80.609,18.274,80.584,18.278"/>
		<path fill="#FFFFFF" d="M30.2,63.266c-0.265,0.012-0.519,0.469-0.461,0.746c0.086,0.43,0.399,0.559,0.739,0.309
			c0.221-0.162,0.337-0.635,0.166-0.838c-0.097-0.117-0.285-0.217-0.435-0.217C30.207,63.266,30.203,63.266,30.2,63.266"/>
		<path fill="#FFFFFF" d="M92.723,17.378c-0.129,0.17-0.223,0.373-0.075,0.523c0.117,0.118,0.339,0.135,0.462,0.178
			c0.161-0.08,0.247-0.141,0.346-0.168c0.212-0.062,0.286-0.258,0.271-0.412c-0.012-0.127-0.163-0.277-0.292-0.344
			c-0.104-0.055-0.191-0.082-0.271-0.082C93.004,17.073,92.871,17.177,92.723,17.378"/>
		<path fill="#FFFFFF" d="M99.963,14.704c-0.232,0.047-0.499,0.406-0.474,0.637c0.022,0.184,0.341,0.355,0.577,0.307
			c0.309-0.062,0.495-0.299,0.447-0.568c-0.044-0.244-0.21-0.387-0.434-0.387C100.042,14.692,100.002,14.696,99.963,14.704"/>
		<path fill="#FFFFFF" d="M55.952,20.325c-0.339,0.086-0.56,0.332-0.512,0.573c0.048,0.236,0.353,0.463,0.546,0.406
			c0.285-0.082,0.5-0.422,0.438-0.692c-0.041-0.18-0.196-0.299-0.373-0.299C56.019,20.313,55.986,20.317,55.952,20.325"/>
		<path fill="#FFFFFF" d="M44.513,55.379c-0.203,0.025-0.368,0.217-0.401,0.475c-0.045,0.305,0.025,0.404,0.438,0.588
			c0.426-0.291,0.553-0.504,0.458-0.746c-0.073-0.184-0.271-0.32-0.451-0.32C44.542,55.375,44.528,55.377,44.513,55.379"/>
		<path fill="#FFFFFF" d="M43.775,56.769c-0.133,0.122-0.258,0.321-0.262,0.489c-0.003,0.139,0.156,0.306,0.282,0.416
			c0.062,0.054,0.224,0.043,0.318,0.004c0.159-0.062,0.312-0.445,0.273-0.613c-0.057-0.264-0.198-0.416-0.361-0.416
			C43.944,56.648,43.858,56.687,43.775,56.769"/>
		<path fill="#FFFFFF" d="M35.553,25.559c-0.244,0.062-0.444,0.338-0.403,0.561c0.037,0.235,0.373,0.445,0.613,0.385
			c0.232-0.057,0.404-0.311,0.358-0.523c-0.06-0.26-0.256-0.438-0.47-0.438C35.619,25.543,35.587,25.549,35.553,25.559"/>
		<path fill="#FFFFFF" d="M79.726,28.566c-0.087,0.082-0.183,0.254-0.151,0.338c0.045,0.111,0.201,0.195,0.322,0.256
			c0.048,0.026,0.112,0.02,0.184,0.014c0.032,0,0.066-0.004,0.099-0.004c0.115-0.066,0.261-0.121,0.359-0.225
			c0.078-0.082,0.149-0.229,0.136-0.334c-0.021-0.143-0.139-0.236-0.312-0.266c-0.04-0.008-0.078-0.012-0.117-0.012
			C80.038,28.334,79.87,28.432,79.726,28.566"/>
		<path fill="#FFFFFF" d="M66.726,63.293c-0.208,0.043-0.376,0.309-0.322,0.519c0.075,0.286,0.312,0.452,0.562,0.39
			c0.202-0.051,0.312-0.287,0.253-0.547c-0.051-0.213-0.234-0.367-0.425-0.367C66.77,63.287,66.749,63.289,66.726,63.293"/>
		<path fill="#FFFFFF" d="M74.389,15.294c0.154,0.199,0.274,0.408,0.555,0.279c0.176-0.078,0.351-0.346,0.334-0.496
			c-0.018-0.135-0.234-0.326-0.377-0.332c-0.007-0.002-0.014-0.002-0.021-0.002C74.649,14.743,74.516,14.892,74.389,15.294"/>
		<path fill="#FFFFFF" d="M94.592,43.975c-0.146,0.051-0.275,0.297-0.238,0.441c0.05,0.168,0.424,0.322,0.656,0.272
			c0.172-0.04,0.328-0.29,0.28-0.45c-0.048-0.154-0.327-0.285-0.555-0.285C94.683,43.953,94.632,43.961,94.592,43.975"/>
		<path fill="#FFFFFF" d="M52.646,63.451c0.108,0.18,0.203,0.338,0.295,0.496c0.09,0.152,0.163,0.352,0.392,0.258
			c0.228-0.092,0.124-0.312,0.113-0.469c-0.013-0.281-0.146-0.439-0.364-0.439C52.959,63.297,52.813,63.346,52.646,63.451"/>
		<path fill="#FFFFFF" d="M80.582,68.783c-0.067-0.744-0.23-0.998-0.695-1.105C79.716,68.146,79.992,68.605,80.582,68.783"/>
		<path fill="#FFFFFF" d="M37.362,21.324c-0.171,0.047-0.272,0.18-0.281,0.362c-0.005,0.132,0.324,0.505,0.442,0.495
			c0.069-0.004,0.166-0.029,0.197-0.08c0.07-0.121,0.108-0.262,0.132-0.322c-0.054-0.293-0.228-0.466-0.41-0.466
			C37.415,21.313,37.388,21.316,37.362,21.324"/>
		<path fill="#FFFFFF" d="M48.473,60.479c-0.203,0.044-0.284,0.25-0.213,0.546c0.059,0.256,0.205,0.385,0.38,0.336
			c0.193-0.053,0.288-0.324,0.22-0.611c-0.042-0.178-0.159-0.281-0.309-0.281C48.527,60.469,48.5,60.473,48.473,60.479"/>
		
			<rect x="60.356" y="75.242" transform="matrix(0.935 -0.3547 0.3547 0.935 -22.9277 26.522)" fill="#FFFFFF" width="1.052" height="1.122"/>
		<path fill="#FFFFFF" d="M60.661,75.357c-0.089,0.033-0.17,0.209-0.17,0.32c0.002,0.248,0.136,0.445,0.345,0.576
			c0.364-0.209,0.436-0.52,0.171-0.774c-0.071-0.069-0.2-0.13-0.294-0.13C60.694,75.35,60.676,75.354,60.661,75.357"/>
		<path fill="#FFFFFF" d="M100.687,17.479c-0.233,0.062-0.39,0.258-0.349,0.438c0.044,0.188,0.174,0.248,0.413,0.197
			c0.288-0.061,0.417-0.191,0.38-0.385c-0.027-0.154-0.18-0.262-0.344-0.262C100.753,17.468,100.721,17.474,100.687,17.479"/>
		<path fill="#FFFFFF" d="M43.677,18.915c-0.028,0.059-0.064,0.125-0.092,0.193c-0.023,0.055-0.044,0.111-0.058,0.168
			c-0.058,0.215,0.043,0.422,0.234,0.521c0.132,0.068,0.27,0.031,0.295-0.09c0.032-0.164,0.002-0.346-0.021-0.514
			c-0.021-0.146-0.081-0.279-0.325-0.279C43.7,18.915,43.687,18.915,43.677,18.915"/>
		<path fill="#FFFFFF" d="M60.004,68.715c-0.18,0.031-0.279,0.211-0.23,0.408c0.066,0.131,0.09,0.324,0.317,0.283
			c0.18-0.035,0.315-0.297,0.251-0.488c-0.046-0.135-0.136-0.211-0.267-0.211C60.054,68.707,60.029,68.709,60.004,68.715"/>
		
			<rect x="41.791" y="75.354" transform="matrix(0.9349 -0.3548 0.3548 0.9349 -24.144 19.9235)" fill="#FFFFFF" width="0.936" height="0.896"/>
		<path fill="#FFFFFF" d="M42.277,75.463c-0.079,0.004-0.191,0.084-0.229,0.16c-0.163,0.316,0.003,0.506,0.427,0.518
			c0.14-0.336,0.156-0.379,0.041-0.531c-0.051-0.07-0.154-0.146-0.234-0.146C42.279,75.463,42.279,75.463,42.277,75.463"/>
		<path fill="#FFFFFF" d="M81.244,47.885c-0.135,0.025-0.238,0.195-0.207,0.343c0.039,0.188,0.217,0.271,0.465,0.214
			c0.181-0.027,0.261-0.133,0.217-0.312c-0.037-0.149-0.205-0.252-0.387-0.252C81.301,47.877,81.274,47.881,81.244,47.885"/>
		<path fill="#FFFFFF" d="M73.169,7.498c-0.224,0.053-0.329,0.182-0.287,0.373c0.036,0.163,0.197,0.255,0.38,0.219
			c0.165-0.036,0.26-0.191,0.221-0.378c-0.028-0.139-0.093-0.226-0.224-0.226C73.231,7.486,73.201,7.489,73.169,7.498"/>
		<path fill="#FFFFFF" d="M83.225,30.066c0.463,0.025,0.481,0.01,0.536-0.494c-0.078-0.009-0.149-0.014-0.209-0.014
			C83.211,29.559,83.137,29.699,83.225,30.066"/>
		<path fill="#FFFFFF" d="M35.621,51.541c-0.163,0.01-0.333,0.268-0.278,0.396c0.071,0.173,0.247,0.196,0.373,0.13
			c0.104-0.057,0.15-0.215,0.263-0.387c-0.158-0.066-0.256-0.139-0.348-0.139C35.627,51.541,35.624,51.541,35.621,51.541"/>
		<path fill="#FFFFFF" d="M66.271,19.413c0.017,0.156,0.159,0.266,0.318,0.236c0.088-0.014,0.156-0.133,0.292-0.262
			c-0.19-0.102-0.306-0.197-0.431-0.213l0,0C66.394,19.175,66.261,19.337,66.271,19.413"/>
		<path fill="#FFFFFF" d="M77.858,15.831c-0.143,0.025-0.295,0.129-0.251,0.303c0.021,0.082,0.154,0.18,0.244,0.189
			c0.173,0.016,0.265-0.123,0.226-0.377c-0.041-0.023-0.129-0.117-0.205-0.117C77.868,15.829,77.861,15.831,77.858,15.831"/>
		<path fill="#FFFFFF" d="M43.029,55.787c-0.151,0.016-0.168,0.145-0.149,0.276c0.032,0.22,0.173,0.286,0.429,0.282
			c0.012-0.129,0.041-0.258,0.027-0.379c-0.018-0.146-0.129-0.184-0.242-0.184C43.073,55.783,43.049,55.783,43.029,55.787"/>
		<path fill="#FFFFFF" d="M40.763,55.596c-0.155,0.023-0.187,0.148-0.175,0.268c0.009,0.07,0.094,0.193,0.135,0.189
			c0.104-0.008,0.229-0.053,0.298-0.127c0.058-0.062,0.046-0.188,0.078-0.355C40.938,55.582,40.852,55.584,40.763,55.596"/>
		<path fill="#FFFFFF" d="M81.494,20.772c-0.146,0.027-0.271,0.11-0.22,0.263c0.032,0.096,0.169,0.154,0.329,0.289
			c0.064-0.179,0.127-0.273,0.129-0.369c0-0.115-0.064-0.188-0.179-0.188C81.535,20.767,81.515,20.769,81.494,20.772"/>
		<path fill="#FFFFFF" d="M69.145,22.883c-0.099,0.039-0.192,0.102-0.273,0.168c-0.017,0.014,0.027,0.146,0.046,0.146
			c0.118,0.004,0.251,0.012,0.356-0.035c0.061-0.025,0.081-0.144,0.144-0.269c-0.097-0.005-0.164-0.019-0.215-0.019
			C69.18,22.875,69.161,22.877,69.145,22.883"/>
		<path fill="#FFFFFF" d="M91.688,23.439c0.177,0.061,0.309,0.004,0.368-0.176c0.014-0.045-0.058-0.166-0.093-0.166
			c-0.007,0-0.016,0-0.024,0C91.738,23.098,91.644,23.207,91.688,23.439"/>
		<path fill="#FFFFFF" d="M14.527,62.894c0.076-0.155,0.145-0.302,0.242-0.509C14.271,62.668,14.265,62.682,14.527,62.894"/>
		<path fill="#FFFFFF" d="M30,62.924c-0.129,0.109-0.161,0.246,0.034,0.431c0.095-0.136,0.271-0.194,0.157-0.38
			c-0.019-0.031-0.104-0.061-0.154-0.061C30.021,62.914,30.007,62.918,30,62.924"/>
		<path fill="#FFFFFF" d="M57.045,63.113c-0.034-0.201,0.027-0.375-0.2-0.48C56.767,62.846,56.767,63,57.045,63.113"/>
		<path fill="#FFFFFF" d="M80.145,31.326c0.01,0.057,0.115,0.131,0.184,0.135c0.044,0,0.129-0.111,0.129-0.17
			c-0.002-0.059-0.089-0.115-0.163-0.203C80.223,31.195,80.135,31.27,80.145,31.326"/>
		<path fill="#FFFFFF" d="M72.23,24.363c-0.077,0.039-0.141,0.111-0.21,0.17c0.055,0.039,0.122,0.123,0.156,0.11
			c0.071-0.024,0.122-0.101,0.183-0.155c0.016-0.039,0.031-0.08,0.046-0.117c-0.038-0.004-0.086-0.017-0.127-0.017
			C72.262,24.354,72.244,24.355,72.23,24.363"/>
		<path fill="#FFFFFF" d="M39.899,62.9c0.05,0.079,0.101,0.158,0.156,0.234c0.002,0.002,0.083-0.03,0.094-0.061
			c0.051-0.125-0.006-0.179-0.153-0.179C39.969,62.896,39.936,62.896,39.899,62.9"/>
		<path fill="#FFFFFF" d="M63.857,61.146c0.021,0.098,0.043,0.197,0.07,0.336c0.213-0.15,0.171-0.255,0.025-0.354
			c-0.004-0.002-0.009-0.004-0.013-0.004C63.922,61.125,63.894,61.141,63.857,61.146"/>
		<path fill="#FFFFFF" d="M35.305,61.801c0.024,0.066,0.048,0.133,0.075,0.195c0.003,0.004,0.099-0.029,0.099-0.035
			c-0.014-0.065-0.037-0.127-0.058-0.189C35.383,61.779,35.343,61.791,35.305,61.801"/>
		<path fill="#FFFFFF" d="M76.534,21.885c-0.029,0.006-0.053,0.059-0.077,0.09c0.041,0.027,0.078,0.074,0.119,0.076
			c0.03,0.002,0.064-0.051,0.108-0.09c-0.074-0.041-0.115-0.078-0.146-0.078L76.534,21.885"/>
	</g>
</g>
</svg>
